# xmcd
# 
# Track frame offsets:
#     150
#     18715
#     35437
#     53947
#     75067
# 
# Disc length: 1277
# 
# Revision: 0
# Processed by: cddbd v1.5.2PL0 Copyright (c) Steve Scherf et al.
# Submitted via: fre:ac v1.0.17
# 
DISCID=3004fb05
DTITLE=梁靜茹 - 靜茹＆情歌-別再為他流淚
DYEAR=2009
DGENRE=Pop
TTITLE0=屬於
TTITLE1=PK
TTITLE2=還是好朋友
TTITLE3=不是我不明白
TTITLE4=Way Back into Love
EXTD=
EXTT0=
EXTT1=
EXTT2=
EXTT3=
EXTT4=
PLAYORDER=
